# xmcd
#
# Track frame offsets:
#	150
#	12257
#	23352
#	33322
#	45265
#	56030
#	66382
#	76595
#	89937
#	103100
#	112672
#	123907
#
# Disc length: 1783
#
# Revision: 2
# Processed by: cddbd v1.5.1PL0 Copyright (c) Steve Scherf et al.
# Submitted via: xmcd 2.6 PL0
# Normalized: r1:TDELIM( - )
#
DISCID=8a06f50c
DTITLE=Various Artist - Merry Christmas Baby
DYEAR=1900
DGENRE=
TTITLE0=Merry Christmas Baby - Charles Brown
TTITLE1=Lonesome Christmas (Part 1) - Lowell Fulsom
TTITLE2=Lonesome Christmas (Part 2) - Lowell Fulsom
TTITLE3=Sleigh Ride - Lloyd Glenn
TTITLE4=Christmas Eve Baby - Johnny Moore's Blazers
TTITLE5=Boogie Woogie Santa Claus - Mabel Scott
TTITLE6=Christmas Everyday - Johnny Moore's Blazers
TTITLE7=Christmas Blues - Jimmy Witherspoon
TTITLE8=Love for Christmas - Jackson Trio
TTITLE9=Christmas Letter - Johnny Moore's Blazers
TTITLE10=Jingle Bell Hop - Jackson Trio
TTITLE11=Christmas Dreams - Johnny Moore's Blazers
EXTD=
EXTT0=
EXTT1=
EXTT2=
EXTT3=
EXTT4=
EXTT5=
EXTT6=
EXTT7=
EXTT8=
EXTT9=
EXTT10=
EXTT11=
PLAYORDER=
